<svg width="149" height="140" viewBox="0 0 149 140" fill="none" xmlns="http://www.w3.org/2000/svg">
<path d="M144.601 22.0011C145.018 21.9802 145.382 22.2581 145.482 22.6474L145.507 22.8196L145.533 23.4895C145.684 30.3318 142.803 34.993 139.076 38.0074C135.266 41.0881 130.601 42.4319 127.447 42.7325C126.972 42.7777 126.55 42.4292 126.504 41.9545C126.459 41.4797 126.807 41.0568 127.282 41.0112C130.176 40.7355 134.498 39.4872 137.989 36.6641C141.334 33.9588 143.945 29.7916 143.805 23.5199L143.783 22.9073L143.791 22.7318C143.852 22.3348 144.184 22.0223 144.601 22.0011Z" fill="#1E65DB"/>
<path d="M18.3361 100.127C17.7792 100.858 17.0217 101.243 16.2337 101.374C14.7159 101.626 13.0428 100.951 12.0771 99.9908L12.0008 99.9142C9.22494 97.0917 8.20688 92.5179 9.47776 88.7511C7.10687 87.7399 4.51776 87.1717 1.88718 86.8084L1.55926 86.7642L1.51959 86.7579C1.11387 86.6835 0.833603 86.303 0.888085 85.8894C0.942572 85.4758 1.31182 85.1809 1.72299 85.214L1.76288 85.2181L2.099 85.2635C4.79927 85.6362 7.54193 86.2295 10.0955 87.3194C10.1432 87.2302 10.1924 87.1417 10.2431 87.054L10.2432 87.0541C11.7961 84.3725 14.7641 82.7423 17.7643 82.444L17.7644 82.4441C20.7194 82.149 23.6726 83.0458 26.1451 84.5497L26.2625 84.6218L26.2961 84.6438C26.6352 84.8786 26.7341 85.3408 26.5143 85.6953C26.2945 86.0499 25.8365 86.1668 25.4754 85.9675L25.4407 85.9472L25.3338 85.8816C23.1175 84.5336 20.5469 83.766 18.0401 83.9844L17.9188 83.9957L17.9185 83.9958L17.7973 84.0087C15.2546 84.297 12.8342 85.6914 11.5926 87.8354L11.5926 87.8354L11.5473 87.9149C11.5341 87.9383 11.5211 87.9619 11.5082 87.9855C11.7555 88.114 12.0006 88.2479 12.243 88.3877L12.2432 88.3877C13.8189 89.296 15.5563 90.472 16.8988 91.9077C18.241 93.343 19.2516 95.108 19.2113 97.1726L19.2112 97.1727L19.2081 97.2888C19.1678 98.4807 18.8684 99.4287 18.3361 100.127ZM15.9784 99.8357C16.4271 99.7612 16.8102 99.5568 17.0959 99.182C17.3889 98.7975 17.6322 98.1635 17.6522 97.1424L17.6521 97.1424C17.6815 95.6363 16.9502 94.246 15.7597 92.9728C14.5694 91.7 12.9831 90.6142 11.4643 89.7387L11.325 89.6593C11.1838 89.5797 11.0415 89.502 10.8983 89.4264C9.91075 92.5896 10.7793 96.4472 13.1112 98.8192L13.1764 98.8847C13.8378 99.5421 15.0228 99.9943 15.9784 99.8357Z" fill="#F1B434"/>
<path d="M129.16 127.945C130.245 127.988 131.168 127.588 131.881 126.969C133.254 125.775 133.9 123.741 133.753 122.137L133.74 122.01C133.259 117.352 129.857 112.977 125.466 111.297C126.331 108.373 127.764 105.585 129.415 102.913L129.622 102.581L129.646 102.54C129.884 102.114 129.749 101.572 129.33 101.31C128.912 101.048 128.365 101.162 128.085 101.562L128.059 101.601L127.847 101.942C126.152 104.684 124.626 107.632 123.695 110.781C123.578 110.757 123.46 110.735 123.342 110.715L123.342 110.716C119.727 110.11 116.004 111.587 113.471 114.097L113.471 114.098C110.975 116.569 109.567 119.937 109.074 123.324L109.052 123.486L109.046 123.533C109.005 124.019 109.352 124.457 109.841 124.524C110.329 124.591 110.781 124.262 110.872 123.782L110.879 123.735L110.9 123.588C111.341 120.552 112.579 117.63 114.667 115.51L114.769 115.408L114.769 115.407L114.872 115.307C117.052 113.206 120.147 112.051 123.037 112.534L123.037 112.535L123.144 112.553C123.175 112.559 123.206 112.565 123.237 112.571C123.168 112.893 123.106 113.217 123.05 113.544L123.05 113.544C122.691 115.665 122.453 118.135 122.75 120.441C123.047 122.746 123.894 124.997 125.807 126.517L125.807 126.516L125.915 126.601C127.032 127.463 128.122 127.904 129.16 127.945ZM130.671 125.576C130.265 125.929 129.79 126.125 129.233 126.103C128.662 126.08 127.9 125.824 126.954 125.073L126.954 125.072C125.559 123.964 124.843 122.25 124.58 120.205C124.316 118.161 124.522 115.896 124.869 113.852L124.901 113.665C124.935 113.476 124.972 113.288 125.011 113.101C128.638 114.584 131.5 118.283 131.905 122.197L131.916 122.306C132.017 123.404 131.536 124.825 130.671 125.576Z" fill="#FF91B6"/>
<ellipse cx="45.8201" cy="123.32" rx="4.32008" ry="4.32009" fill="#B4F2F2"/>
<ellipse cx="27.8201" cy="28.3201" rx="4.32008" ry="4.32009" fill="#FBAEC8"/>
<ellipse cx="141.092" cy="78.5921" rx="2.59205" ry="2.59205" fill="#FDCB7F"/>
<ellipse cx="78.5001" cy="70" rx="50" ry="50" fill="white"/>
<path d="M118.5 70.002C118.5 62.0907 116.154 54.3571 111.759 47.7792C107.363 41.2012 101.116 36.0743 93.8073 33.0468C86.4982 30.0193 78.4556 29.2272 70.6963 30.7706C62.9371 32.314 55.8098 36.1236 50.2157 41.7177C44.6216 47.3118 40.8119 54.4391 39.2685 62.1984C37.7251 69.9576 38.5173 78.0003 41.5448 85.3093C44.5723 92.6184 49.6992 98.8655 56.2772 103.261C62.8551 107.656 70.5887 110.002 78.4999 110.002C83.753 110.003 88.9549 108.969 93.8083 106.959C98.6617 104.949 103.072 102.003 106.786 98.2882C110.501 94.5737 113.447 90.1638 115.457 85.3103C117.467 80.4569 118.501 75.2551 118.5 70.002Z" fill="white"/>
<path fill-rule="evenodd" clip-rule="evenodd" d="M102.563 54.131C102.713 54.2421 102.876 54.3401 103.033 54.4446C103.483 54.7146 103.873 55.0736 104.179 55.4997C104.485 55.9257 104.701 56.4098 104.814 56.9223C104.926 57.4347 104.933 57.9648 104.833 58.4799C104.734 58.9951 104.53 59.4845 104.235 59.9181C93.366 75.7575 83.2223 86.2016 78.2387 90.9371C77.3511 91.7742 76.1885 92.2588 74.9691 92.2997C73.7497 92.3405 72.5572 91.935 71.6155 91.1592C64.6389 85.3014 58.3638 78.6558 52.9154 71.3551C52.3592 70.6131 52.094 69.6931 52.1698 68.7689C52.2456 67.8447 52.6572 66.9802 53.3269 66.3388L56.5274 63.184C57.2799 62.4367 58.2897 62.0055 59.3499 61.9788C60.4101 61.9521 61.4403 62.3318 62.2295 63.0403C66.7357 67.2868 71.0135 71.7695 75.0447 76.4694C81.0966 68.1438 87.7159 60.2456 94.8552 52.8312C95.4693 52.2129 96.2587 51.7984 97.1164 51.6442C97.9741 51.4899 98.8585 51.6034 99.6495 51.9691C99.818 52.0506 99.9778 52.1491 100.126 52.263L102.563 54.131Z" fill="#02BE20"/>
</svg>
