<svg width="284" height="181" viewBox="0 0 284 181" fill="none" xmlns="http://www.w3.org/2000/svg">
<path fill-rule="evenodd" clip-rule="evenodd" d="M161.742 45.3773C186.328 18.4189 217.108 0 251.716 0C258.658 0 265.938 1.89753 272.029 6.6751C278.256 11.5597 281.932 18.4511 283.06 25.8579C285.203 39.944 278.271 54.0309 267.963 65.5558C249.642 86.0394 214.002 106.52 155.283 120.531C149.033 133.29 143.457 147.158 138.721 161.885C114.425 237.425 113.605 330.958 151.575 404.883C156.179 413.848 152.645 424.849 143.679 429.454C134.714 434.058 123.713 430.524 119.108 421.558C75.6682 336.983 77.499 233.031 103.975 150.71C106.365 143.282 108.966 135.992 111.768 128.875C76.9191 133.764 44.5878 133.554 20.1459 131.985C6.20811 131.09 -5.26886 129.745 -13.3192 128.614C-17.3468 128.048 -20.5239 127.534 -22.7304 127.154C-23.8338 126.964 -24.6951 126.808 -25.2994 126.695C-25.6016 126.639 -25.8395 126.593 -26.0114 126.56L-26.2194 126.52L-26.2858 126.506L-26.3191 126.5C-26.3231 126.499 -26.327 126.498 -26.327 126.498C-36.2099 124.521 -42.6189 114.907 -40.642 105.024C-38.666 95.1463 -29.0608 88.7388 -19.1834 90.7059L-19.1791 90.7067L-19.1748 90.7076L-19.1677 90.709L-19.0832 90.7254C-18.9896 90.7435 -18.8312 90.7738 -18.6098 90.8151C-18.1671 90.8976 -17.4728 91.024 -16.5418 91.1841C-14.6793 91.5046 -11.8721 91.96 -8.23835 92.4708C-0.965824 93.4931 9.58855 94.7335 22.4849 95.5616C48.3594 97.2232 83.2435 97.1974 119.789 90.6412C123.6 89.9574 127.308 89.2506 130.914 88.5228C140.055 72.3947 150.387 57.8277 161.742 45.3773ZM185.531 73.5619C215.36 62.6573 232.372 50.6007 240.759 41.2238C242.186 39.6276 243.281 38.2125 244.121 36.9836C225.575 39.3453 206.623 50.3292 188.71 69.9715C187.642 71.1415 186.583 72.3385 185.531 73.5619Z" fill="#F1B434"/>
<path d="M202.11 56.2568C190.678 52.4224 164.813 53.6198 154.061 54.259C150.008 58.7806 137.841 75.4718 130.64 88.5472C145.029 85.3046 172.952 78.4409 185.588 73.6052C187.915 68.7337 192.438 65.7699 202.11 56.2568Z" fill="url(#paint0_linear_136_5186)" fill-opacity="0.3"/>
<path d="M140.149 156.157C128.718 159.991 112.438 159.41 101.686 158.771C104.077 147.477 108.387 139.742 111.39 128.735C118.02 127.808 148.717 123.775 155.353 120.531C147.317 136.386 143.19 146.595 140.149 156.157Z" fill="url(#paint1_linear_136_5186)" fill-opacity="0.3"/>
<defs>
<linearGradient id="paint0_linear_136_5186" x1="139.036" y1="87.2224" x2="136.9" y2="67.701" gradientUnits="userSpaceOnUse">
<stop stop-opacity="0.4"/>
<stop offset="1" stop-opacity="0"/>
</linearGradient>
<linearGradient id="paint1_linear_136_5186" x1="119.8" y1="130.024" x2="120.401" y2="151.087" gradientUnits="userSpaceOnUse">
<stop stop-opacity="0.3"/>
<stop offset="1" stop-opacity="0"/>
</linearGradient>
</defs>
</svg>
