<svg width="327" height="108" viewBox="0 0 327 108" fill="none" xmlns="http://www.w3.org/2000/svg">
<rect width="327" height="108" rx="20" fill="url(#paint0_linear_54_8)"/>
<g clip-path="url(#clip0_54_8)">
<path fill-rule="evenodd" clip-rule="evenodd" d="M290.669 36.4291C280.925 35.6993 271.958 32.2531 266.242 24.9578C265.095 23.4944 264.292 21.6463 264.294 19.5733C264.295 17.4538 265.14 15.5405 266.515 14.0795C269.131 11.301 273.245 10.4355 277.377 10.7048C284.721 11.1834 294.925 15.3135 307.578 25.3773C311.3 24.5871 315.144 23.4719 319.031 22.0378C338.967 14.6821 358.82 -0.594348 368.131 -20.8088C369.261 -23.2603 372.164 -24.3322 374.615 -23.2029C377.067 -22.0736 378.139 -19.1708 377.009 -16.7193C366.356 6.4076 344.141 23.1919 322.414 31.208C320.454 31.9313 318.487 32.587 316.524 33.1718C323.311 39.7105 328.607 46.5605 332.313 51.9721C334.427 55.058 336.039 57.6994 337.13 59.5833C337.676 60.5259 338.093 61.2805 338.377 61.8083C338.519 62.0723 338.629 62.2797 338.705 62.4256C338.743 62.4986 338.772 62.5563 338.794 62.598L338.82 62.6486L338.828 62.6647L338.832 62.6728L338.833 62.6748C340.049 65.0846 339.081 68.0237 336.671 69.2394C334.262 70.4544 331.325 69.488 330.108 67.0809L330.107 67.0799L330.107 67.0788L330.106 67.0771L330.096 67.0565C330.084 67.0338 330.064 66.9954 330.036 66.942C329.981 66.835 329.892 66.6678 329.772 66.445C329.532 65.9995 329.165 65.3325 328.672 64.4822C327.687 62.7803 326.205 60.3505 324.249 57.4952C320.325 51.7664 314.558 44.4171 307.14 37.7963C306.366 37.1058 305.605 36.441 304.856 35.8011C299.946 36.5382 295.169 36.7662 290.669 36.4291ZM292.681 26.7589C285.455 22.2722 280.103 20.6776 276.741 20.4585C276.169 20.4212 275.69 20.4242 275.292 20.4501C278.853 23.9694 284.299 26.1502 291.399 26.682C291.821 26.7137 292.249 26.7393 292.681 26.7589Z" fill="#F1B434"/>
<path d="M286.297 26.1209C287.377 29.164 291.901 34.4187 293.812 36.5796C295.435 36.6871 300.963 36.495 304.909 35.8532C301.848 33.3555 295.789 28.6031 292.683 26.7383C291.272 27.0524 289.9 26.5883 286.297 26.1209Z" fill="url(#paint1_linear_54_8)" fill-opacity="0.3"/>
<path d="M317.59 22.6839C320.286 24.4603 322.852 27.988 324.494 30.3601C321.718 31.7215 319.376 32.0906 316.559 33.2756C315.269 32.0312 309.348 26.2265 307.568 25.3634C312.238 24.4385 315.072 23.6223 317.59 22.6839Z" fill="url(#paint2_linear_54_8)" fill-opacity="0.3"/>
</g>
<defs>
<linearGradient id="paint0_linear_54_8" x1="163.5" y1="0" x2="163.5" y2="108" gradientUnits="userSpaceOnUse">
<stop stop-color="#01BDB1"/>
<stop offset="1" stop-color="#007C80"/>
</linearGradient>
<linearGradient id="paint1_linear_54_8" x1="303.243" y1="34.3021" x2="299.48" y2="37.9769" gradientUnits="userSpaceOnUse">
<stop stop-opacity="0.4"/>
<stop offset="1" stop-opacity="0"/>
</linearGradient>
<linearGradient id="paint2_linear_54_8" x1="315.442" y1="31.29" x2="319.783" y2="27.6842" gradientUnits="userSpaceOnUse">
<stop stop-opacity="0.3"/>
<stop offset="1" stop-opacity="0"/>
</linearGradient>
<clipPath id="clip0_54_8">
<rect width="66" height="87" fill="white" transform="translate(261)"/>
</clipPath>
</defs>
</svg>
