<svg width="97" height="83" viewBox="0 0 97 83" fill="none" xmlns="http://www.w3.org/2000/svg">
<path d="M81.067 1.0479C81.0447 0.693299 81.0042 0.344217 80.951 0C83.2298 2.35437 86.484 3.73448 90.0085 3.5116C91.6941 3.40454 93.2708 2.93996 94.6739 2.19929C93.5841 4.10303 93.0188 6.33605 93.1678 8.68945C93.3518 11.6028 94.5971 14.1943 96.5001 16.1169C95.5266 15.9206 94.5126 15.845 93.4746 15.9112C89.3508 16.172 85.8708 18.5624 84.0277 21.9433C83.2998 16.9458 79.4277 13.0608 74.5857 12.2059C78.6768 10.2045 81.3722 5.87894 81.067 1.0479Z" fill="#F1B434"/>
<path d="M69.9546 17.5342V60.0569H79.9394V28.1884C79.9394 25.8083 78.6712 18.6178 69.9546 17.5342Z" fill="#00A39D"/>
<path fill-rule="evenodd" clip-rule="evenodd" d="M15.743 18.4426C18.6053 18.4426 21.0417 18.7088 23.0513 19.2396C25.0602 19.7714 26.7007 20.5205 27.9711 21.4884C29.2406 22.4562 30.1645 23.6331 30.7435 25.0179C31.3213 26.4034 31.6106 27.9498 31.6106 29.6578C31.6106 30.5876 31.4779 31.4845 31.2133 32.3477C30.9475 33.2116 30.5298 34.0176 29.9613 34.7669C29.3924 35.5169 28.6625 36.2046 27.7716 36.8312C26.8801 37.4571 25.8097 37.9981 24.5587 38.453C27.2879 39.1174 29.3073 40.1893 30.6152 41.6699C31.9232 43.1498 32.5781 45.0668 32.5781 47.4195C32.5781 49.1842 32.2366 50.8263 31.5538 52.3441C30.8715 53.8626 29.8707 55.1861 28.5533 56.3149C27.2361 57.444 25.6103 58.3263 23.6763 58.9621C21.7434 59.5982 19.5343 59.9157 17.0513 59.9157H0.500763V18.4426H15.743ZM16.8801 52.6571C18.1499 52.6571 19.1878 52.4959 19.9943 52.1733C20.7997 51.8505 21.4302 51.4332 21.886 50.9208C22.3405 50.4084 22.653 49.8295 22.8239 49.1842C22.9944 48.5398 23.0795 47.8849 23.0795 47.2208C23.0795 46.4619 22.9801 45.7786 22.7807 45.1708C22.5825 44.5636 22.2407 44.0519 21.757 43.6339C21.2742 43.2166 20.6339 42.8938 19.8377 42.6661C19.0414 42.4387 18.0365 42.3245 16.8229 42.3245H10.1124V52.6571H16.8801ZM10.1124 25.6442V35.8916H15.1173C16.1785 35.8916 17.1364 35.8159 17.9895 35.6639C18.842 35.5118 19.5677 35.2466 20.1645 34.8665C20.7613 34.4873 21.2171 33.9657 21.5296 33.3013C21.8421 32.6372 21.999 31.8022 21.999 30.7965C21.999 29.8099 21.8755 28.989 21.6293 28.3344C21.3825 27.6795 21.0033 27.1531 20.4916 26.7542C19.98 26.3557 19.3301 26.0714 18.544 25.9002C17.7573 25.7294 16.8229 25.6442 15.743 25.6442H10.1124Z" fill="#00A39D"/>
<path d="M60.5739 27.8929C60.8874 27.6652 61.1853 27.3239 61.4699 26.8681L63.8586 22.3993C63.1192 21.7161 62.2807 21.1045 61.3422 20.5635C60.4036 20.0228 59.3949 19.5577 58.3137 19.1687C57.2332 18.7798 56.0904 18.4852 54.8873 18.2864C53.6829 18.087 52.4458 17.9871 51.176 17.9871C48.9006 17.9871 46.8816 18.3335 45.1185 19.0259C43.3561 19.719 41.8674 20.6446 40.6538 21.8017C39.4405 22.9591 38.5217 24.2778 37.8957 25.7578C37.2697 27.2384 36.9571 28.7568 36.9571 30.3125C36.9571 32.2482 37.223 33.8754 37.7534 35.1941C38.2838 36.5131 38.9806 37.6137 39.8442 38.4963C40.7056 39.3786 41.6867 40.0901 42.7869 40.6311C43.8862 41.1718 45.014 41.627 46.1711 41.9969C47.3269 42.3674 48.4553 42.7046 49.5546 43.0077C50.6539 43.3111 51.6346 43.6623 52.4986 44.0605C53.3602 44.4594 54.0577 44.9625 54.5885 45.5694C55.1185 46.1772 55.3844 46.9641 55.3844 47.9323C55.3844 49.6021 54.901 50.8213 53.9345 51.59C52.9677 52.3582 51.6118 52.7427 49.8681 52.7427C48.5786 52.7427 47.4596 52.5624 46.5122 52.202C45.5641 51.8413 44.7253 51.4431 43.9957 51.0064C43.2655 50.5697 42.6116 50.1715 42.0335 49.8108C41.4542 49.4501 40.8812 49.2701 40.3133 49.2701C39.8763 49.2701 39.4736 49.3792 39.1039 49.5974C38.7342 49.8156 38.4362 50.0856 38.2082 50.4084L35.3646 54.9056C36.1796 55.722 37.1366 56.4622 38.2371 57.1263C39.3364 57.7904 40.5118 58.3642 41.7636 58.848C43.0146 59.3321 44.3083 59.7071 45.6451 59.973C46.981 60.2382 48.2943 60.3712 49.5835 60.3712C51.9338 60.3712 54.0339 60.0156 55.8827 59.3034C57.7306 58.5919 59.2847 57.6152 60.5459 56.3718C61.8062 55.1292 62.7686 53.6724 63.4327 52.0023C64.0962 50.3331 64.4275 48.5398 64.4275 46.6225C64.4275 44.8961 64.1616 43.4202 63.6312 42.1963C63.1005 40.9724 62.4039 39.9336 61.5413 39.0796C60.679 38.2256 59.6928 37.5236 58.5837 36.9731C57.4752 36.4231 56.3417 35.9441 55.1852 35.5357C54.0288 35.128 52.8962 34.7581 51.7874 34.4257C50.6786 34.0939 49.6924 33.7282 48.8301 33.3299C47.9672 32.9314 47.2697 32.4569 46.7393 31.9063C46.2089 31.3564 45.943 30.6639 45.943 29.8287C45.943 28.5192 46.3842 27.4801 47.2656 26.712C48.1469 25.9432 49.4882 25.559 51.2891 25.559C52.3324 25.559 53.2618 25.6964 54.0765 25.9715C54.8915 26.2466 55.6169 26.5552 56.2521 26.8968C56.8867 27.2384 57.4559 27.5466 57.958 27.8217C58.4605 28.0968 58.9296 28.2346 59.3657 28.2346C59.8586 28.2346 60.2613 28.1207 60.5739 27.8929Z" fill="#00A39D"/>
<rect x="10.0612" y="66.5918" width="66.9281" height="15.108" fill="white"/>
<path d="M75.4091 65.2183C77.9104 65.2183 79.9384 67.2346 79.9384 69.7213V78.4976C79.9382 80.9841 77.9102 82.9996 75.4091 82.9996H11.536C10.4701 82.9996 9.43802 82.6257 8.62197 81.9439L1.30751 75.8326C0.230829 74.933 0.230829 73.2849 1.30751 72.3853L8.62197 66.274C9.438 65.5923 10.4701 65.2183 11.536 65.2183H75.4091ZM26.4677 71.9097C25.7652 71.9097 25.1475 72.0661 24.6161 72.3795C24.085 72.6928 23.671 73.1226 23.3739 73.6685C23.0767 74.2147 22.9276 74.8373 22.9276 75.5357C22.9277 76.216 23.0768 76.8201 23.3739 77.3482C23.6801 77.8675 24.0984 78.2754 24.6298 78.5709C25.161 78.8573 25.778 79.0005 26.4804 79.0005C27.0116 79.0005 27.4981 78.9016 27.9393 78.7047C28.3806 78.4987 28.7543 78.2255 29.0604 77.8853C29.3666 77.5362 29.5828 77.147 29.7089 76.7173H27.6425C27.5345 76.9052 27.3814 77.0618 27.1835 77.1871C26.9944 77.3034 26.7511 77.3618 26.454 77.3619C26.1389 77.3619 25.8639 77.2949 25.6298 77.1607C25.4046 77.0264 25.2285 76.838 25.1024 76.5963C25.0094 76.4041 24.9555 76.1891 24.9364 75.9517H29.871C29.889 75.8353 29.8983 75.7232 29.8983 75.6158C29.9073 75.4995 29.912 75.3967 29.912 75.3072C29.912 74.6446 29.7629 74.0625 29.4657 73.5611C29.1775 73.0509 28.7768 72.6475 28.2636 72.3521C27.7504 72.0569 27.1518 71.9098 26.4677 71.9097ZM40.3856 71.9097C39.6832 71.9097 39.0617 72.0661 38.5214 72.3795C37.9901 72.6839 37.5717 73.105 37.2655 73.6422C36.9684 74.1704 36.8192 74.7837 36.8192 75.482C36.8193 76.1623 36.9684 76.7663 37.2655 77.2945C37.5717 77.8227 37.9901 78.2391 38.5214 78.5435C39.0617 78.8479 39.6832 79.0005 40.3856 79.0005C41.2681 79.0005 42.0155 78.763 42.6278 78.2886C43.2402 77.8141 43.6278 77.1735 43.7899 76.3677H41.6425C41.5885 76.5647 41.498 76.7305 41.372 76.8648C41.2549 76.9991 41.1105 77.1018 40.9393 77.1734C40.7772 77.245 40.5881 77.2808 40.372 77.2808C40.147 77.2808 39.9445 77.2412 39.7645 77.1607C39.5846 77.0713 39.4269 76.9457 39.2919 76.7847C39.1658 76.6236 39.0661 76.4304 38.994 76.2066C38.922 75.9828 38.8866 75.7321 38.8866 75.4547C38.8866 75.0878 38.9491 74.77 39.0751 74.5015C39.2012 74.224 39.3726 74.0129 39.5888 73.8697C39.8138 73.7176 40.075 73.6422 40.372 73.6422C40.6871 73.6422 40.9574 73.7223 41.1825 73.8834C41.4077 74.0445 41.5614 74.2687 41.6425 74.5552H43.7899C43.6278 73.7226 43.2402 73.0735 42.6278 72.608C42.0244 72.1424 41.2772 71.9097 40.3856 71.9097ZM57.0565 71.9097C56.4623 71.9097 55.9357 72.0125 55.4765 72.2183C55.0172 72.4242 54.6472 72.7059 54.3681 73.064C54.0979 73.4222 53.9404 73.8433 53.8954 74.3267H55.8407C55.8947 74.0582 56.0299 73.8613 56.246 73.7359C56.4621 73.6106 56.7278 73.5475 57.0429 73.5474C57.3401 73.5474 57.5749 73.5974 57.746 73.6959C57.9167 73.7943 58.0383 73.9416 58.1102 74.1382C58.1913 74.3352 58.2323 74.5868 58.2323 74.8912H56.5839C55.9264 74.8912 55.3814 74.9844 54.9491 75.1724C54.5168 75.3515 54.1973 75.5983 53.9901 75.9117C53.7921 76.216 53.6933 76.5695 53.6933 76.9722C53.6933 77.3482 53.7781 77.6931 53.9491 78.0064C54.1292 78.3108 54.4041 78.5529 54.7733 78.732C55.1516 78.9111 55.6249 79.0005 56.1923 79.0005C56.4534 79.0005 56.692 78.9732 56.9081 78.9195C57.1242 78.8658 57.3227 78.7894 57.5028 78.691C57.6827 78.5836 57.8405 78.4629 57.9755 78.3287C58.1104 78.1856 58.2271 78.0289 58.3261 77.8589L58.5692 78.8394H60.2587V74.649C60.2587 74.0493 60.1234 73.5479 59.8534 73.1451C59.5922 72.7422 59.2223 72.4379 58.745 72.232C58.2677 72.0171 57.7049 71.9097 57.0565 71.9097ZM11.0077 69.438V78.8394H13.0341V72.8355L15.371 77.523H16.9921L19.3153 72.8355V78.8394H21.3417V69.438H18.9237L16.1952 75.0923L13.4393 69.438H11.0077ZM35.9003 71.9097C35.5311 71.9098 35.1844 71.9672 34.8602 72.0836C34.545 72.1999 34.2655 72.361 34.0224 72.567C33.7792 72.7729 33.5677 73.0197 33.3876 73.3062L33.1991 72.0709H31.4022V78.8394H33.4286V75.817C33.4286 75.4769 33.4687 75.195 33.5497 74.9713C33.6398 74.7385 33.7618 74.5548 33.9149 74.4205C34.077 74.2863 34.2663 74.1919 34.4823 74.1382C34.7074 74.0756 34.9554 74.0445 35.2255 74.0445H35.9003V71.9097ZM45.3593 69.1695V78.8394H47.3856V75.2535C47.3856 74.9133 47.449 74.6222 47.5751 74.3804C47.7011 74.1299 47.8765 73.9376 48.1015 73.8033C48.3266 73.669 48.5745 73.6012 48.8446 73.6011C49.3039 73.6011 49.6375 73.7406 49.8446 74.0181C50.0606 74.2956 50.1688 74.6849 50.1688 75.1861V78.8394H52.1815V74.9986C52.1815 74.345 52.0828 73.7892 51.8847 73.3326C51.6865 72.867 51.393 72.5138 51.0058 72.272C50.6185 72.0304 50.1367 71.9097 49.5604 71.9097C49.0653 71.9098 48.6327 72.0124 48.2636 72.2183C47.8945 72.4242 47.6017 72.6975 47.3856 73.0377V69.1695H45.3593ZM66.1298 71.9097C65.5895 71.9098 65.1301 72.0256 64.7518 72.2584C64.3738 72.4821 64.081 72.7819 63.8739 73.1578L63.7118 72.0709H61.9423V78.8394H63.9686V75.2261C63.9687 74.886 64.0321 74.5948 64.1581 74.3531C64.2841 74.1117 64.455 73.9285 64.6708 73.8033C64.8959 73.669 65.1438 73.6011 65.414 73.6011C65.8733 73.6011 66.2068 73.7406 66.414 74.0181C66.6299 74.2867 66.7382 74.6675 66.7382 75.1597V78.8394H68.7509V74.9713C68.7509 74.3177 68.6475 73.7666 68.4403 73.3189C68.2422 72.8624 67.9486 72.5137 67.5614 72.272C67.1742 72.0304 66.697 71.9097 66.1298 71.9097ZM71.3427 70.1636L71.1268 72.0709H69.9647V73.7496H71.1268V76.3677C71.1268 76.9853 71.2304 77.4735 71.4374 77.8316C71.6445 78.1896 71.9372 78.4497 72.3153 78.6109C72.6935 78.7631 73.1307 78.8394 73.6259 78.8394H74.8964V77.1334H73.9638C73.6666 77.1333 73.4551 77.0797 73.329 76.9722C73.212 76.8559 73.1533 76.6635 73.1532 76.3951V73.7496H74.8964V72.0709H73.1532V70.1636H71.3427ZM58.1376 76.0728V76.0855C58.1016 76.2824 58.0428 76.4663 57.9618 76.6363C57.8898 76.7975 57.7947 76.9406 57.6776 77.066C57.5606 77.1912 57.4216 77.2903 57.2597 77.3619C57.0977 77.4335 56.9083 77.4693 56.6923 77.4693C56.5302 77.4693 56.3811 77.4467 56.246 77.4019C56.12 77.3482 56.0165 77.2718 55.9354 77.1734C55.8636 77.0661 55.8271 76.9366 55.827 76.7847C55.827 76.6416 55.8635 76.5161 55.9354 76.4088C56.0075 76.3013 56.1156 76.2203 56.2597 76.1666C56.4128 76.1039 56.6019 76.0728 56.827 76.0728H58.1376ZM5.36122 72.3228C4.36997 72.323 3.5663 73.1225 3.5663 74.108C3.56655 75.0933 4.37012 75.8919 5.36122 75.8922C6.3525 75.8922 7.15687 75.0934 7.15712 74.108C7.15712 73.1223 6.35265 72.3228 5.36122 72.3228ZM26.4804 73.5347C26.8586 73.5347 27.1745 73.6506 27.4267 73.8834C27.6876 74.1071 27.8275 74.407 27.8456 74.7828H24.9804C25.0141 74.6184 25.0641 74.471 25.1298 74.3404C25.2739 74.0718 25.4631 73.8702 25.6972 73.7359C25.9312 73.6017 26.1923 73.5348 26.4804 73.5347Z" fill="#F1B434"/>
</svg>
