<svg width="80" height="69" viewBox="0 0 80 69" fill="none" xmlns="http://www.w3.org/2000/svg">
<path d="M67.1389 0.868429C67.1202 0.574561 67.0865 0.285265 67.0422 0C68.9412 1.95115 71.653 3.09489 74.5901 2.91018C75.9947 2.82146 77.3087 2.43645 78.4779 1.82263C77.5697 3.40032 77.0986 5.25091 77.2228 7.20125C77.3762 9.61565 78.4139 11.7633 79.9998 13.3566C79.1885 13.194 78.3435 13.1313 77.4785 13.1862C74.042 13.4023 71.142 15.3833 69.6061 18.1851C68.9995 14.0436 65.7728 10.8239 61.7378 10.1155C65.147 8.45685 67.3932 4.87208 67.1389 0.868429Z" fill="#F1B434"/>
<path d="M57.8785 14.5314V49.7717H66.1992V23.361C66.1992 21.3885 65.1424 15.4294 57.8785 14.5314Z" fill="white"/>
<path fill-rule="evenodd" clip-rule="evenodd" d="M12.7019 15.2842C15.0872 15.2842 17.1176 15.5048 18.7922 15.9448C20.4663 16.3855 21.8334 17.0063 22.8921 17.8084C23.95 18.6105 24.72 19.5858 25.2025 20.7335C25.6839 21.8817 25.925 23.1633 25.925 24.5788C25.925 25.3492 25.8144 26.0926 25.5939 26.808C25.3724 27.5239 25.0243 28.1918 24.5506 28.8129C24.0765 29.4344 23.4683 30.0043 22.7259 30.5236C21.9829 31.0423 21.0909 31.4907 20.0484 31.8677C22.3228 32.4183 24.0056 33.3066 25.0955 34.5336C26.1855 35.7601 26.7313 37.3488 26.7313 39.2986C26.7313 40.761 26.4467 42.122 25.8777 43.3798C25.3091 44.6382 24.4751 45.735 23.3772 46.6705C22.2796 47.6063 20.9247 48.3375 19.3131 48.8644C17.7023 49.3916 15.8614 49.6547 13.7922 49.6547H0V15.2842H12.7019ZM13.6495 43.6392C14.7077 43.6392 15.5727 43.5056 16.2447 43.2383C16.9159 42.9707 17.4413 42.6249 17.8211 42.2003C18.1999 41.7756 18.4603 41.2959 18.6027 40.761C18.7448 40.227 18.8158 39.6843 18.8158 39.1339C18.8158 38.5049 18.7329 37.9387 18.5667 37.435C18.4015 36.9318 18.1167 36.5077 17.7136 36.1613C17.3113 35.8155 16.7777 35.5479 16.1142 35.3592C15.4506 35.1707 14.6132 35.0761 13.6019 35.0761H8.00971V43.6392H13.6495ZM8.00971 21.2525V29.7449H12.1805C13.0648 29.7449 13.8631 29.6822 14.574 29.5562C15.2844 29.4302 15.8892 29.2104 16.3865 28.8954C16.8839 28.5812 17.2637 28.1489 17.5241 27.5982C17.7846 27.0478 17.9153 26.3559 17.9153 25.5224C17.9153 24.7048 17.8124 24.0244 17.6072 23.482C17.4016 22.9392 17.0856 22.503 16.6592 22.1724C16.2328 21.8421 15.6912 21.6065 15.0361 21.4647C14.3805 21.3231 13.6019 21.2525 12.7019 21.2525H8.00971Z" fill="white"/>
<path d="M50.0612 23.1161C50.3225 22.9274 50.5707 22.6445 50.8079 22.2668L52.7985 18.5633C52.1824 17.9971 51.4836 17.4902 50.7015 17.0419C49.9194 16.5938 49.0787 16.2084 48.1778 15.886C47.2773 15.5636 46.325 15.3195 45.3224 15.1548C44.3187 14.9895 43.2878 14.9068 42.2296 14.9068C40.3335 14.9068 38.6509 15.1938 37.1817 15.7677C35.713 16.342 34.4724 17.1091 33.4611 18.068C32.45 19.0273 31.6843 20.1201 31.1626 21.3466C30.6409 22.5736 30.3805 23.832 30.3805 25.1213C30.3805 26.7255 30.602 28.074 31.044 29.1669C31.486 30.26 32.0668 31.1721 32.7864 31.9035C33.5042 32.6347 34.3218 33.2244 35.2387 33.6728C36.1547 34.1209 37.0946 34.4981 38.0588 34.8046C39.022 35.1117 39.9624 35.3911 40.8784 35.6423C41.7945 35.8938 42.6118 36.1848 43.3318 36.5148C44.0498 36.8454 44.6311 37.2624 45.0733 37.7653C45.5151 38.2691 45.7366 38.9212 45.7366 39.7236C45.7366 41.1074 45.3338 42.1178 44.5284 42.7549C43.7227 43.3915 42.5928 43.7102 41.1397 43.7102C40.0651 43.7102 39.1326 43.5607 38.3431 43.262C37.553 42.9631 36.854 42.6331 36.246 42.2712C35.6375 41.9093 35.0926 41.5793 34.6108 41.2804C34.1281 40.9814 33.6506 40.8322 33.1773 40.8322C32.8131 40.8322 32.4775 40.9227 32.1694 41.1035C31.8614 41.2843 31.6131 41.5081 31.4231 41.7756L29.0534 45.5026C29.7325 46.1792 30.53 46.7926 31.4471 47.343C32.3632 47.8934 33.3428 48.3689 34.3859 48.7698C35.4284 49.171 36.5065 49.4818 37.6205 49.7022C38.7337 49.922 39.8282 50.0322 40.9025 50.0322C42.8612 50.0322 44.6112 49.7375 46.1519 49.1473C47.6918 48.5576 48.9869 47.7481 50.0379 46.7178C51.0882 45.6879 51.8902 44.4806 52.4436 43.0965C52.9965 41.7132 53.2726 40.227 53.2726 38.6381C53.2726 37.2073 53.051 35.9842 52.609 34.9699C52.1667 33.9556 51.5863 33.0947 50.8674 32.387C50.1488 31.6792 49.327 31.0975 48.4027 30.6412C47.479 30.1854 46.5344 29.7885 45.5707 29.45C44.607 29.1121 43.6631 28.8055 42.7391 28.5301C41.8151 28.2551 40.9933 27.952 40.2747 27.622C39.5556 27.2917 38.9743 26.8984 38.5323 26.4421C38.0903 25.9864 37.8688 25.4125 37.8688 24.7203C37.8688 23.6351 38.2364 22.774 38.9709 22.1374C39.7054 21.5003 40.8231 21.1819 42.3239 21.1819C43.1933 21.1819 43.9678 21.2957 44.6467 21.5237C45.3258 21.7518 45.9304 22.0074 46.4597 22.2905C46.9886 22.5736 47.4629 22.8291 47.8813 23.0571C48.3 23.2851 48.691 23.3992 49.0544 23.3992C49.4652 23.3992 49.8008 23.3048 50.0612 23.1161Z" fill="white"/>
<rect x="7.96777" y="55.187" width="55.7734" height="12.5205" fill="white"/>
<path d="M62.4248 54.0487C64.509 54.0489 66.1982 55.7195 66.1982 57.7802V65.0536C66.1981 67.1142 64.509 68.7849 62.4248 68.785H9.19625C8.30808 68.785 7.4485 68.4749 6.76852 67.91L0.672814 62.8446C-0.224197 62.099 -0.224346 60.7337 0.672814 59.9882L6.76852 54.9237C7.4485 54.3588 8.30806 54.0487 9.19625 54.0487H62.4248ZM21.6396 59.5936C21.0542 59.5936 20.5394 59.7236 20.0966 59.9833C19.6541 60.2429 19.3091 60.5992 19.0615 61.0516C18.8139 61.5042 18.6904 62.0199 18.6904 62.5985C18.6904 63.1624 18.8138 63.6637 19.0615 64.1014C19.3166 64.5317 19.6656 64.8693 20.1084 65.1141C20.5511 65.3515 21.0651 65.4705 21.6504 65.4706C22.0931 65.4706 22.4985 65.3886 22.8662 65.2255C23.2338 65.0548 23.5456 64.8286 23.8007 64.5468C24.0559 64.2574 24.2357 63.9342 24.3408 63.578H22.6191C22.5291 63.7337 22.4013 63.8638 22.2363 63.9677C22.0787 64.0641 21.8756 64.1122 21.6279 64.1122C21.3653 64.1122 21.1364 64.0565 20.9414 63.9452C20.7539 63.8339 20.607 63.6786 20.5019 63.4784C20.4244 63.3192 20.3792 63.1409 20.3632 62.9442H24.4765C24.4915 62.8479 24.499 62.7548 24.499 62.6659C24.5065 62.5696 24.5097 62.4841 24.5097 62.41C24.5097 61.861 24.3863 61.3783 24.1386 60.9628C23.8985 60.5398 23.5645 60.2057 23.1367 59.9608C22.709 59.716 22.2099 59.5937 21.6396 59.5936ZM33.2382 59.5936C32.6529 59.5936 32.1348 59.7236 31.6845 59.9833C31.2418 60.2355 30.8928 60.5841 30.6377 61.0292C30.39 61.4669 30.2666 61.9758 30.2666 62.5546C30.2666 63.1183 30.3901 63.6189 30.6377 64.0565C30.8928 64.4943 31.2418 64.8394 31.6845 65.0917C32.1348 65.344 32.6529 65.4706 33.2382 65.4706C33.9735 65.4706 34.5962 65.2737 35.1064 64.8807C35.6167 64.4875 35.9401 63.9567 36.0752 63.2889H34.2851C34.2401 63.4521 34.1646 63.5898 34.0595 63.701C33.962 63.8121 33.8416 63.8976 33.6992 63.9569C33.5642 64.0161 33.4064 64.0458 33.2265 64.0458C33.0391 64.0457 32.8706 64.0119 32.7207 63.9452C32.5706 63.871 32.4387 63.7672 32.3261 63.6337C32.2211 63.5002 32.1391 63.3406 32.0791 63.1552C32.019 62.9697 31.9883 62.7621 31.9882 62.5321C31.9882 62.2279 32.0414 61.9646 32.1464 61.7421C32.2515 61.512 32.3941 61.3373 32.5742 61.2186C32.7617 61.0926 32.9791 61.0292 33.2265 61.0292C33.4891 61.0292 33.7147 61.0959 33.9023 61.2294C34.0899 61.3629 34.2176 61.5487 34.2851 61.786H36.0752C35.94 61.0961 35.6167 60.5585 35.1064 60.1727C34.6036 59.787 33.9811 59.5937 33.2382 59.5936ZM47.1308 59.5936C46.6355 59.5936 46.1962 59.6789 45.8134 59.8495C45.4308 60.0201 45.1232 60.254 44.8906 60.5507C44.6654 60.8475 44.5336 61.1969 44.4961 61.5975H46.1171C46.1622 61.3749 46.2749 61.2112 46.455 61.1073C46.6351 61.0034 46.8565 60.952 47.1191 60.952C47.3668 60.952 47.5624 60.9925 47.705 61.0741C47.8475 61.1557 47.9488 61.2782 48.0088 61.4413C48.0763 61.6045 48.1103 61.8122 48.1103 62.0643H46.7363C46.1885 62.0644 45.7342 62.1429 45.374 62.2987C45.0141 62.447 44.7477 62.6506 44.5752 62.91C44.41 63.1623 44.3271 63.456 44.3271 63.7899C44.3271 64.1013 44.3986 64.3868 44.541 64.6464C44.6911 64.8986 44.9208 65.0995 45.2285 65.2479C45.5436 65.3962 45.9375 65.4706 46.4101 65.4706C46.6277 65.4706 46.8267 65.4477 47.0068 65.4032C47.1867 65.3587 47.3519 65.2962 47.5019 65.2147C47.652 65.1257 47.7839 65.0252 47.8964 64.9139C48.0089 64.7953 48.1059 64.6652 48.1884 64.5243L48.3916 65.3368H49.7988V61.8641C49.7988 61.3672 49.6859 60.9519 49.4609 60.618C49.2433 60.2843 48.9356 60.0319 48.538 59.8612C48.1404 59.6832 47.6711 59.5937 47.1308 59.5936ZM8.75582 57.5458V65.3368H10.4453V60.3612L12.3925 64.246H13.7431L15.6797 60.3612V65.3368H17.3681V57.5458H15.3535L13.0791 62.2313L10.7822 57.5458H8.75582ZM29.5009 59.5936C29.1933 59.5936 28.9039 59.6417 28.6338 59.7382C28.3711 59.8346 28.1381 59.9689 27.9355 60.1395C27.733 60.3101 27.5562 60.5136 27.4062 60.7509L27.249 59.7274H25.7519V65.3368H27.4404V62.8329C27.4404 62.5511 27.4745 62.3172 27.542 62.1317C27.617 61.9388 27.7181 61.786 27.8457 61.6747C27.9807 61.5635 28.1383 61.4858 28.3183 61.4413C28.5059 61.3894 28.7124 61.3632 28.9375 61.3632H29.5009V59.5936ZM37.3828 57.3231V65.3368H39.0713V62.3651C39.0713 62.0832 39.1244 61.8418 39.2295 61.6415C39.3345 61.4339 39.4805 61.2742 39.6679 61.163C39.8555 61.0517 40.062 60.996 40.2871 60.996C40.6696 60.996 40.9474 61.111 41.1201 61.3407C41.3002 61.5707 41.3906 61.8939 41.3906 62.3094V65.3368H43.0683V62.1532C43.0683 61.6117 42.9853 61.1516 42.8203 60.7733C42.6552 60.3877 42.4114 60.0947 42.0888 59.8944C41.7661 59.6941 41.3641 59.5936 40.8838 59.5936C40.4713 59.5937 40.1112 59.679 39.8037 59.8495C39.496 60.0201 39.2514 60.2463 39.0713 60.5282V57.3231H37.3828ZM54.6914 59.5936C54.2412 59.5937 53.8581 59.6898 53.5429 59.8827C53.2278 60.0682 52.9841 60.3172 52.8115 60.6288L52.6767 59.7274H51.2021V65.3368H52.8906V62.3427C52.8906 62.0608 52.9428 61.8193 53.0478 61.619C53.1528 61.4188 53.2956 61.2668 53.4755 61.163C53.6631 61.0517 53.8697 60.996 54.0947 60.996C54.4772 60.996 54.7551 61.111 54.9277 61.3407C55.1078 61.5633 55.1982 61.879 55.1982 62.287V65.3368H56.8759V62.1317C56.8759 61.5901 56.7888 61.1336 56.6162 60.7626C56.4511 60.3842 56.2074 60.0947 55.8847 59.8944C55.562 59.6941 55.1642 59.5936 54.6914 59.5936ZM59.0361 58.1464L58.8554 59.7274H57.8877V61.118H58.8554V63.2889C58.8554 63.8009 58.9426 64.2051 59.1152 64.5018C59.2878 64.7986 59.5315 65.0138 59.8466 65.1473C60.1618 65.2735 60.5257 65.3368 60.9384 65.3368H61.997V63.9237H61.2197C60.9721 63.9237 60.7954 63.8789 60.6904 63.7899C60.5929 63.6935 60.5449 63.5338 60.5449 63.3114V61.118H61.997V59.7274H60.5449V58.1464H59.0361ZM48.0312 63.0438V63.0555C48.0012 63.2186 47.9522 63.3707 47.8847 63.5116C47.8247 63.6451 47.7459 63.7642 47.6484 63.868C47.551 63.9717 47.4346 64.0529 47.2998 64.1122C47.1647 64.1715 47.0063 64.201 46.8261 64.201C46.6912 64.201 46.5675 64.1824 46.455 64.1454C46.3502 64.1009 46.2637 64.0384 46.1963 63.9569C46.1362 63.8679 46.1064 63.7598 46.1064 63.6337C46.1064 63.515 46.1362 63.4111 46.1963 63.3221C46.2563 63.2331 46.3467 63.1665 46.4668 63.1219C46.5943 63.0701 46.752 63.0438 46.9394 63.0438H48.0312ZM4.05172 59.9364C3.22553 59.9364 2.55563 60.5991 2.55563 61.4159C2.55585 62.2325 3.22566 62.8944 4.05172 62.8944C4.87762 62.8942 5.54759 62.2324 5.54781 61.4159C5.54781 60.5992 4.87776 59.9366 4.05172 59.9364ZM21.6504 60.9403C21.9654 60.9403 22.2284 61.0367 22.4384 61.2294C22.6561 61.4149 22.773 61.6638 22.788 61.9755H20.4013C20.4295 61.839 20.4706 61.7166 20.5254 61.6083C20.6454 61.3858 20.8029 61.2186 20.998 61.1073C21.193 60.9961 21.4104 60.9404 21.6504 60.9403Z" fill="#F1B434"/>
</svg>
