<svg width="63" height="70" viewBox="0 0 63 70" fill="none" xmlns="http://www.w3.org/2000/svg">
<path fill-rule="evenodd" clip-rule="evenodd" d="M26.6684 36.4291C16.9247 35.6993 7.95786 32.2531 2.24157 24.9578C1.09484 23.4944 0.292364 21.6463 0.293456 19.5733C0.294573 17.4538 1.14 15.5405 2.51519 14.0795C5.13047 11.301 9.24499 10.4355 13.377 10.7048C20.7211 11.1834 30.9253 15.3135 43.5776 25.3773C47.2996 24.5871 51.1438 23.4719 55.0306 22.0378C74.9673 14.6821 94.8197 -0.594348 104.131 -20.8088C105.261 -23.2603 108.163 -24.3322 110.615 -23.2029C113.066 -22.0736 114.138 -19.1708 113.009 -16.7193C102.356 6.4076 80.1404 23.1919 58.414 31.208C56.4535 31.9313 54.4873 32.587 52.524 33.1718C59.3108 39.7105 64.607 46.5605 68.3133 51.9721C70.4268 55.058 72.0391 57.6994 73.1302 59.5833C73.6761 60.5259 74.0926 61.2805 74.377 61.8083C74.5192 62.0723 74.6285 62.2797 74.7046 62.4256C74.7426 62.4986 74.7724 62.5563 74.7938 62.598L74.8196 62.6486L74.8278 62.6647L74.8319 62.6728C74.8324 62.6738 74.8328 62.6748 74.8328 62.6748C76.0485 65.0846 75.0804 68.0237 72.6705 69.2394C70.262 70.4544 67.3247 69.488 66.1079 67.0809L66.1074 67.0799L66.1068 67.0788L66.106 67.0771L66.0955 67.0565C66.0838 67.0338 66.064 66.9954 66.0362 66.942C65.9804 66.835 65.8924 66.6678 65.7724 66.445C65.5323 65.9995 65.1646 65.3325 64.6721 64.4822C63.6864 62.7803 62.2045 60.3505 60.2489 57.4952C56.3254 51.7664 50.558 44.4171 43.1396 37.7963C42.3659 37.1058 41.6045 36.441 40.8555 35.8011C35.9459 36.5382 31.1685 36.7662 26.6684 36.4291ZM28.6803 26.7589C21.4547 22.2722 16.1033 20.6776 12.7413 20.4585C12.169 20.4212 11.69 20.4242 11.2922 20.4501C14.8532 23.9694 20.2991 26.1502 27.3985 26.682C27.8214 26.7137 28.2488 26.7393 28.6803 26.7589Z" fill="#F1B434"/>
</svg>
