<svg width="24" height="24" viewBox="0 0 24 24" fill="none" xmlns="http://www.w3.org/2000/svg">
<path d="M21.0312 9.32151C19.5177 11.1951 16.743 13.643 12.3881 13.643C8.03331 13.643 5.25855 11.1951 3.74512 9.32151C5.25855 7.44796 8.03332 5 12.3881 5C16.743 5 19.5177 7.44796 21.0312 9.32151Z" fill="#EBF9F9"/>
<path d="M21.6435 14.6968C22.0451 15.3941 21.5411 16.2647 20.7364 16.2638C20.3629 16.2633 20.0181 16.0637 19.8317 15.7401L18.3659 13.1753C17.548 13.6899 16.6662 14.095 15.743 14.3803L16.2029 17.1311C16.2971 17.6993 15.913 18.2364 15.3448 18.3308C15.2874 18.3409 15.2292 18.3459 15.1709 18.3456C14.6622 18.3451 14.2281 17.9778 14.1433 17.4762L13.6956 14.7985C12.8271 14.8947 11.9507 14.8947 11.0822 14.7985L10.6388 17.4788C10.5539 17.981 10.1188 18.3486 9.60944 18.3482C9.55116 18.3485 9.49296 18.3436 9.43556 18.3334C8.86726 18.2377 8.4842 17.6994 8.58008 17.1311L9.04 14.3734C8.11678 14.088 7.23496 13.6829 6.41704 13.1684L4.95126 15.7401C4.5497 16.4374 3.54381 16.4386 3.14065 15.7421C2.95355 15.4189 2.95309 15.0204 3.13945 14.6968L4.74086 11.9017C4.19809 11.4115 3.69489 10.8793 3.23595 10.3098C2.75418 9.66729 3.14866 8.74416 3.94602 8.64821C4.28912 8.60693 4.6304 8.73822 4.85736 8.99881C6.25186 10.7254 8.69137 12.7841 12.3915 12.7841C16.0916 12.7841 18.5311 10.7254 19.9256 8.99881C20.4343 8.37735 21.425 8.53963 21.7088 9.2909C21.8389 9.63502 21.778 10.0222 21.5488 10.3098C21.0893 10.8793 20.5855 11.4116 20.0421 11.9017L21.6435 14.6968Z" fill="black" fill-opacity="0.9"/>
</svg>
