<svg width="24" height="24" viewBox="0 0 24 24" fill="none" xmlns="http://www.w3.org/2000/svg">
<path fill-rule="evenodd" clip-rule="evenodd" d="M3.97504 11.2535C3.86407 11.409 3.78571 11.6382 3.78571 11.8996C3.78571 12.1611 3.86407 12.3903 3.97504 12.5458C4.68992 13.5051 5.84345 14.8933 7.26994 16.0351C8.70999 17.1876 10.3335 18.0136 12.0017 18.0136C13.6699 18.0136 15.2934 17.1876 16.7334 16.0351C18.16 14.8933 19.3134 13.5051 20.0283 12.5459C20.1393 12.3903 20.2177 12.1611 20.2177 11.8996C20.2177 11.6382 20.1393 11.409 20.0283 11.2534C19.3134 10.2942 18.16 8.90596 16.7334 7.76423C15.2934 6.61161 13.6699 5.78571 12.0017 5.78571C10.3335 5.78571 8.70999 6.61161 7.26994 7.76423C5.84345 8.90597 4.68992 10.2942 3.97504 11.2535ZM6.15408 6.37009C7.73971 5.10096 9.75265 4 12.0017 4C14.2507 4 16.2637 5.10096 17.8493 6.37009C19.4455 7.64773 20.7051 9.17269 21.4648 10.1927L21.4723 10.2026C21.8254 10.6908 22.0034 11.2962 22.0034 11.8996C22.0034 12.5031 21.8254 13.1084 21.4723 13.5966L21.465 13.6067C20.7053 14.6267 19.4455 16.1516 17.8493 17.4292C16.2637 18.6983 14.2507 19.7993 12.0017 19.7993C9.75265 19.7993 7.73971 18.6983 6.15408 17.4292C4.5578 16.1516 3.29819 14.6266 2.53851 13.6066L2.5311 13.5967C2.17796 13.1085 2 12.5031 2 11.8996C2 11.2962 2.17803 10.6909 2.53117 10.2027L2.53844 10.1926C3.29812 9.17264 4.5578 7.64773 6.15408 6.37009ZM12.0014 8.32791C10.029 8.32791 8.42997 9.9269 8.42997 11.8993C8.42997 13.8718 10.029 15.4708 12.0014 15.4708C13.9738 15.4708 15.5728 13.8718 15.5728 11.8993C15.5728 9.9269 13.9738 8.32791 12.0014 8.32791Z" fill="black" fill-opacity="0.9"/>
</svg>
