<svg width="36" height="36" viewBox="0 0 36 36" fill="none" xmlns="http://www.w3.org/2000/svg">
<path fill-rule="evenodd" clip-rule="evenodd" d="M16.9945 0.642883H19.0105C19.7648 0.644425 20.5012 0.872822 21.1239 1.29839C21.7467 1.72395 22.227 2.32701 22.5025 3.02917L23.4257 5.37431L26.2285 6.99174L28.7125 6.61374C29.4597 6.50123 30.2234 6.61647 30.9041 6.94444C31.5848 7.2724 32.1509 7.79787 32.5285 8.45231L33.534 10.1906C33.9127 10.8448 34.0852 11.5981 34.0287 12.3519C33.9723 13.1057 33.6896 13.8249 33.2177 14.4155L31.6491 16.3775V19.6226L33.2074 21.5846C33.678 22.1757 33.9599 22.8948 34.0163 23.6483C34.0727 24.4018 33.9011 25.1548 33.5237 25.8095L32.5208 27.5477C32.1429 28.2019 31.5768 28.7272 30.8962 29.0551C30.2156 29.3831 29.452 29.4985 28.7048 29.3863L26.2183 29.0083L23.4128 30.6283L22.4948 32.9683C22.2197 33.671 21.7396 34.2746 21.1168 34.7006C20.494 35.1266 19.7574 35.3554 19.0028 35.3572H16.9894C16.2348 35.3554 15.4982 35.1266 14.8755 34.7006C14.2527 34.2746 13.7725 33.671 13.4974 32.9683L12.5794 30.6283L9.77397 29.0083L7.2874 29.3863C6.54051 29.4991 5.77697 29.3842 5.0963 29.0567C4.41563 28.7292 3.8494 28.2043 3.4714 27.5503L2.46855 25.8095C2.0898 25.1553 1.91736 24.402 1.97379 23.6481C2.03023 22.8943 2.3129 22.1751 2.78483 21.5846L4.3534 19.6226V16.3775L2.78483 14.4155C2.31316 13.8249 2.03043 13.1059 1.97355 12.3522C1.91667 11.5986 2.08828 10.8453 2.46597 10.1906L3.46883 8.45231C3.84664 7.79741 4.41313 7.27164 5.09434 6.94365C5.77556 6.61566 6.53984 6.50068 7.2874 6.61374L9.76626 6.99174L12.5794 5.36145L13.5025 3.02917C13.7775 2.3266 14.2576 1.72315 14.8805 1.2975C15.5034 0.87184 16.2401 0.643722 16.9945 0.642883ZM23.1325 18C23.1325 21.2837 21.2837 23.1326 18 23.1326C14.7163 23.1326 12.8674 21.2837 12.8674 18C12.8674 14.7163 14.7163 12.8675 18 12.8675C21.2837 12.8675 23.1325 14.7163 23.1325 18Z" fill="#01BDB1"/>
</svg>
