<svg width="36" height="36" viewBox="0 0 36 36" fill="none" xmlns="http://www.w3.org/2000/svg">
<path d="M17.9999 1.125C12.886 1.125 9.39382 1.39142 7.23476 1.64331C5.06866 1.89602 3.41669 3.53801 3.16976 5.71231C2.90768 8.01998 2.625 11.9179 2.625 18.0001C2.625 24.0822 2.90768 27.9801 3.16976 30.2878C3.41669 32.4621 5.06865 34.1041 7.23476 34.3568C9.39382 34.6087 12.886 34.8751 17.9999 34.8751C23.1139 34.8751 26.606 34.6087 28.7651 34.3568C30.9312 34.1041 32.5831 32.4621 32.8301 30.2878C33.0922 27.9801 33.3748 24.0822 33.3748 18.0001C33.3748 15.7221 33.3352 13.7507 33.2719 12.0548C33.2675 11.9388 33.2452 11.8243 33.2059 11.7152C32.8621 10.7617 31.8106 8.5848 28.7639 5.61356C25.5307 2.46051 23.2199 1.5034 22.3601 1.23602C22.2632 1.20587 22.1626 1.18899 22.0612 1.18581C20.8403 1.14758 19.4888 1.125 17.9999 1.125Z" fill="#F1B434"/>
<path d="M33.2475 11.8615C31.3427 11.8607 28.062 11.8306 26.1832 11.6503C24.136 11.4539 22.526 9.82036 22.3254 7.72883C22.1595 5.9983 22.1265 3.10714 22.125 1.18945C22.2046 1.1965 22.2833 1.21204 22.3598 1.23581C23.2196 1.5032 25.5304 2.46031 28.7635 5.61337C31.8103 8.58458 32.8619 10.7615 33.2057 11.7149C33.2229 11.7629 33.2368 11.8118 33.2475 11.8615Z" fill="#ED8B00"/>
<path fill-rule="evenodd" clip-rule="evenodd" d="M9 27C8.17155 27 7.5 27.6716 7.5 28.5C7.5 29.3284 8.17155 30 9 30H27C27.8284 30 28.5 29.3284 28.5 28.5C28.5 27.6716 27.8284 27 27 27H9Z" fill="white"/>
<path d="M7.5 22.5C7.5 21.6716 8.17155 21 9 21H27C27.8284 21 28.5 21.6716 28.5 22.5C28.5 23.3284 27.8284 24 27 24H9C8.17155 24 7.5 23.3284 7.5 22.5Z" fill="white"/>
<path d="M7.5 14.3478V7.5H9.83022C10.338 7.5 10.755 7.59457 11.0815 7.7837C11.4139 7.9663 11.6617 8.21739 11.825 8.53696C11.9882 8.85 12.0698 9.19891 12.0698 9.5837C12.0698 10.0011 11.967 10.3826 11.7615 10.7283C11.562 11.0739 11.2477 11.325 10.8185 11.4815L12.1332 14.3478H10.8004L9.62168 11.6478H8.66057V14.3478H7.5ZM8.66057 10.7283H9.75768C10.1445 10.7283 10.4286 10.6272 10.61 10.425C10.7913 10.2228 10.882 9.95543 10.882 9.62283C10.882 9.29674 10.7913 9.03587 10.61 8.84022C10.4347 8.64457 10.1476 8.54674 9.74861 8.54674H8.66057V10.7283Z" fill="white"/>
<path d="M13.122 16.5V9.49565H14.1556L14.2825 10.1902C14.4276 9.975 14.618 9.78587 14.8538 9.62283C15.0955 9.45978 15.4068 9.37826 15.7877 9.37826C16.2108 9.37826 16.5886 9.48913 16.921 9.71087C17.2535 9.93261 17.5164 10.2359 17.7099 10.6207C17.9033 11.0054 18 11.4424 18 11.9315C18 12.4207 17.9033 12.8576 17.7099 13.2424C17.5164 13.6207 17.2535 13.9207 16.921 14.1424C16.5886 14.3576 16.2108 14.4652 15.7877 14.4652C15.4492 14.4652 15.153 14.3967 14.8991 14.2598C14.6452 14.1228 14.4397 13.9304 14.2825 13.6826V16.5H13.122ZM15.5428 13.3696C15.9116 13.3696 16.2168 13.2359 16.4586 12.9685C16.7004 12.7011 16.8213 12.3554 16.8213 11.9315C16.8213 11.5076 16.7004 11.1587 16.4586 10.8848C16.2168 10.6109 15.9116 10.4739 15.5428 10.4739C15.1681 10.4739 14.8598 10.6109 14.618 10.8848C14.3823 11.1522 14.2644 11.4978 14.2644 11.9217C14.2644 12.3457 14.3823 12.6946 14.618 12.9685C14.8598 13.2359 15.1681 13.3696 15.5428 13.3696Z" fill="white"/>
</svg>
