<svg width="36" height="36" viewBox="0 0 36 36" fill="none" xmlns="http://www.w3.org/2000/svg">
<path fill-rule="evenodd" clip-rule="evenodd" d="M30.8652 0.498797C22.0866 -0.166266 13.9135 -0.166266 5.13494 0.498797C2.65496 0.686672 0.68474 2.66064 0.496594 5.14798C-0.165531 13.9011 -0.165531 22.0988 0.496594 30.8519C0.68474 33.3391 2.65496 35.3132 5.13498 35.5011C13.9135 36.1663 22.0866 36.1663 30.8652 35.5011C33.345 35.3132 35.3154 33.3391 35.5035 30.8519C36.1655 22.0988 36.1655 13.9011 35.5035 5.14798C35.3154 2.66064 33.345 0.686672 30.8652 0.498797Z" fill="#0047BB"/>
<path d="M13.5698 14.4484L20.2012 14.4484L20.2012 18.427L17.4192 18.427L20.2012 20.9731L17.8379 20.9731L15.1096 18.427L15.1096 20.9731L13.5698 20.9731L13.5698 16.9286L18.4319 16.9286L18.4319 15.9604L13.5698 15.9604L13.5698 14.4484Z" fill="white"/>
<path d="M20.8901 20.9731L22.5108 20.9731L22.5108 14.4352L20.8901 14.4352L20.8901 20.9731Z" fill="white"/>
<path d="M7.91135 19.395L7.91134 14.4484L6.64181 14.4484C6.41223 14.4484 6.23663 14.621 6.23663 14.8329C6.23663 16.0003 6.22314 19.4348 6.22314 20.5753C6.22314 20.7875 6.39874 20.9731 6.61483 20.9731C7.49267 20.9731 10.0181 20.9731 10.3826 20.9731L10.3826 19.395L7.91135 19.395Z" fill="white"/>
<path d="M11.2202 22.6043C11.369 22.6043 12.5033 22.6043 12.8816 22.6043C12.8816 22.6043 12.8816 19.3818 12.8816 19.3287C12.3413 19.3287 11.7743 19.3287 11.2202 19.3287C11.2202 20.4161 11.2202 21.5036 11.2202 22.6043Z" fill="white"/>
<path d="M8.72167 14.4484C8.72167 14.4752 8.72167 16.0795 8.72167 16.0795C9.46451 16.0795 10.4097 16.0795 11.22 16.0795C11.22 17.2071 11.22 18.5198 11.22 18.5198C11.5983 18.5198 12.7327 18.5198 12.8814 18.5198L12.8814 14.8465C12.8814 14.6341 12.7056 14.4616 12.4898 14.4484C11.6795 14.4484 9.76152 14.4484 8.72167 14.4484Z" fill="white"/>
<path d="M8.72168 16.8751C8.72168 17.4189 8.72168 17.9628 8.72168 18.5329C8.85674 18.5329 9.0053 18.5329 9.14036 18.5329C9.51869 18.5329 9.99107 18.5329 10.3693 18.5329C10.3693 18.5329 10.3693 16.9018 10.3693 16.8751C9.82901 16.8751 9.27541 16.8751 8.72168 16.8751ZM9.88319 18.0289C9.72113 18.0289 9.53199 18.0289 9.38325 18.0289C9.32945 18.0289 9.27542 18.0289 9.20789 18.0289C9.20789 17.8034 9.20789 17.5915 9.20788 17.366C9.43742 17.366 9.65365 17.366 9.88319 17.366C9.88319 17.3791 9.88319 18.0289 9.88319 18.0289Z" fill="white"/>
<path d="M30.4655 19.3288L30.4656 21.7689C30.4656 21.981 30.2764 22.1535 30.0607 22.1535L27.5757 22.1535L27.5757 22.5513L30.4656 22.5513L30.4793 22.5513C30.6818 22.5513 30.8571 22.3789 30.8571 22.1667L30.8571 22.1535L30.8571 19.3288L30.4655 19.3288Z" fill="white"/>
<path d="M5.54776 16.0664L5.54775 13.6261C5.54775 13.4142 5.70981 13.2548 5.92589 13.2548L8.41092 13.2548C8.42441 13.2548 8.42441 13.2417 8.42441 13.2417L8.42441 12.8703C8.42441 12.8703 8.42441 12.8572 8.41092 12.8572L5.54775 12.8572C5.31817 12.8572 5.14257 13.0297 5.14257 13.2548L5.14258 16.0664C5.14258 16.0795 5.15607 16.0795 5.15607 16.0795L5.53426 16.0795C5.53426 16.0795 5.54776 16.0795 5.54776 16.0664Z" fill="white"/>
<path d="M29.763 16.0664L29.763 14.4484L23.2129 14.4484L23.2129 16.8751L23.2129 18.5067L27.5755 18.5067L27.5755 19.3155L23.2129 19.3155L23.2129 20.9466L29.763 20.9466L29.763 16.8887L25.4008 16.8887L25.4008 16.0664L29.763 16.0664Z" fill="white"/>
</svg>
