<svg width="36" height="36" viewBox="0 0 36 36" fill="none" xmlns="http://www.w3.org/2000/svg">
<g clip-path="url(#clip0_721_4207)">
<path fill-rule="evenodd" clip-rule="evenodd" d="M10.2257 1.5H10.1391L10.0531 1.51072C9.60618 1.56637 9.17123 1.62179 8.74074 1.67666H8.74069C8.20706 1.74464 7.6803 1.81177 7.1462 1.87738C5.17246 2.11988 3.57783 3.70845 3.4344 5.7459C2.8552 13.9735 2.8552 21.7504 3.4344 29.9779C3.57721 32.0064 5.17377 33.6333 7.20539 33.8036C14.6758 34.4299 21.5139 34.4299 28.9843 33.8036C31.0159 33.6333 32.6124 32.0064 32.7554 29.9779C33.3344 21.7504 33.3344 13.9735 32.7554 5.7459C32.6118 3.70845 31.0173 2.11988 29.0435 1.87738C28.5094 1.81177 27.9825 1.74464 27.449 1.67666C27.0184 1.62182 26.5834 1.56637 26.1366 1.51072L26.0506 1.5H25.964H10.2257Z" fill="#01BDB1"/>
<path fill-rule="evenodd" clip-rule="evenodd" d="M7.5 9.40357C7.5 8.57513 8.92122 7.90356 10.6744 7.90356H25.3256C27.0787 7.90356 28.5 8.57513 28.5 9.40357C28.5 10.232 27.0787 10.9036 25.3256 10.9036H10.6744C8.92122 10.9036 7.5 10.232 7.5 9.40357Z" fill="white"/>
<path fill-rule="evenodd" clip-rule="evenodd" d="M7.5 16.598C7.5 15.7696 8.92122 15.098 10.6744 15.098H25.3256C27.0787 15.098 28.5 15.7696 28.5 16.598C28.5 17.4264 27.0787 18.098 25.3256 18.098H10.6744C8.92122 18.098 7.5 17.4264 7.5 16.598Z" fill="white"/>
<path fill-rule="evenodd" clip-rule="evenodd" d="M7.5 23.9273C7.5 23.0989 8.92122 22.4273 10.6744 22.4273H25.3256C27.0787 22.4273 28.5 23.0989 28.5 23.9273C28.5 24.7557 27.0787 25.4273 25.3256 25.4273H10.6744C8.92122 25.4273 7.5 24.7557 7.5 23.9273Z" fill="white"/>
<path d="M36 28.125C36 32.4742 32.4742 36 28.125 36C23.7758 36 20.25 32.4742 20.25 28.125C20.25 23.7758 23.7758 20.25 28.125 20.25C32.4742 20.25 36 23.7758 36 28.125Z" fill="#007C80"/>
<path fill-rule="evenodd" clip-rule="evenodd" d="M27.8625 23.5312C28.4424 23.5312 28.9125 24.0209 28.9125 24.625V27.9062H31.0125C31.5924 27.9062 32.0625 28.3959 32.0625 29C32.0625 29.6041 31.5924 30.0938 31.0125 30.0938H28.3875C27.5177 30.0938 26.8125 29.3592 26.8125 28.4531V24.625C26.8125 24.0209 27.2826 23.5312 27.8625 23.5312Z" fill="white"/>
</g>
<defs>
<clipPath id="clip0_721_4207">
<rect width="36" height="36" fill="white"/>
</clipPath>
</defs>
</svg>
